<?xml version="1.0" encoding="UTF-8" ?>
<!DOCTYPE svg PUBLIC "-//W3C//DTD SVG 1.1//EN" "http://www.w3.org/Graphics/SVG/1.1/DTD/svg11.dtd">
<svg width="2277pt" height="460pt" viewBox="0 0 2277 460" version="1.1" xmlns="http://www.w3.org/2000/svg">
<g id="#6b7280ff">
<path fill="#6b7280" opacity="1.00" d=" M 3.20 1.00 C 110.73 0.99 218.27 1.01 325.81 0.99 C 361.15 39.12 397.04 76.74 432.24 115.00 C 432.15 230.00 432.22 345.00 432.21 460.00 L 3.18 460.00 C 3.21 307.00 3.19 154.00 3.20 1.00 M 46.72 42.64 C 46.61 44.09 46.48 45.54 46.49 46.99 C 46.36 160.33 46.48 273.66 46.42 387.00 C 47.05 396.78 46.02 406.57 46.71 416.36 C 160.93 416.32 275.14 416.29 389.35 416.37 C 389.23 325.33 389.46 234.28 389.24 143.24 C 374.85 143.38 360.45 142.94 346.07 143.52 C 330.82 143.51 315.56 143.45 300.31 143.54 C 300.14 205.95 300.35 268.36 300.21 330.77 C 292.14 331.27 284.05 330.88 275.98 331.00 C 267.36 331.47 258.73 330.99 250.11 330.80 C 250.09 314.42 250.93 298.02 249.86 281.65 C 225.72 281.33 201.56 281.02 177.43 281.78 C 176.45 282.73 176.95 284.72 176.67 286.06 C 176.62 301.01 176.60 315.96 176.68 330.91 C 171.81 331.52 166.91 331.23 162.02 331.29 C 150.40 331.11 138.75 331.68 127.15 330.95 C 125.89 296.64 126.87 262.30 126.79 227.97 C 126.52 220.31 126.23 212.63 126.80 204.98 C 126.96 202.08 128.58 199.55 130.64 197.60 C 146.49 181.80 162.29 165.96 178.10 150.13 C 182.06 146.17 185.74 140.65 191.84 140.20 C 222.22 140.13 252.61 140.19 282.99 140.17 C 287.92 140.14 292.86 140.30 297.79 139.93 C 297.69 107.50 297.73 75.07 297.78 42.64 C 214.09 42.62 130.40 42.63 46.72 42.64 M 200.87 197.85 C 193.12 206.04 184.85 213.70 177.26 222.03 C 177.00 224.67 176.83 227.32 176.78 229.97 C 201.43 230.82 226.14 230.78 250.79 229.96 C 250.70 216.16 250.73 202.36 250.77 188.55 C 239.17 187.92 227.53 188.38 215.92 188.23 C 209.26 187.78 205.20 193.83 200.87 197.85 Z" />
<path fill="#6b7280" opacity="1.00" d=" M 2147.68 66.89 C 2173.66 59.82 2199.71 52.98 2225.77 46.21 C 2230.85 64.47 2235.61 82.83 2240.62 101.12 C 2241.90 106.09 2243.48 111.00 2244.41 116.07 C 2218.56 123.07 2192.80 130.40 2166.90 137.18 C 2160.29 113.81 2153.93 90.37 2147.68 66.89 Z" />
<path fill="#6b7280" opacity="1.00" d=" M 695.02 95.77 C 711.97 94.65 728.94 93.37 745.94 93.60 C 770.36 93.44 794.94 94.29 818.97 99.00 C 838.49 102.48 857.74 108.71 874.64 119.25 C 890.14 129.17 903.11 143.25 911.06 159.90 C 919.70 177.70 923.31 197.46 925.01 217.04 C 927.82 252.88 924.41 290.11 908.93 322.97 C 895.03 352.48 869.52 376.13 839.36 388.43 C 818.93 397.00 797.00 401.31 775.07 403.89 C 752.84 406.55 730.45 407.83 708.07 407.63 C 678.49 407.58 648.90 406.27 619.44 403.49 C 618.83 388.86 617.87 374.23 617.25 359.60 C 628.16 355.88 639.50 353.61 650.48 350.12 C 651.21 335.43 650.57 320.70 650.78 306.00 C 650.78 262.99 650.77 219.99 650.78 176.99 C 650.57 171.77 650.60 166.47 649.35 161.36 C 648.42 157.76 644.95 155.75 641.93 154.06 C 633.11 149.33 624.32 144.53 615.57 139.68 C 615.84 126.85 617.30 114.08 617.98 101.27 C 643.63 99.03 669.33 97.42 695.02 95.77 M 734.00 151.98 C 734.10 161.65 733.45 171.31 733.99 180.98 C 734.01 226.63 733.99 272.29 734.00 317.95 C 734.14 325.12 733.48 332.29 734.09 339.46 C 745.66 340.84 757.30 341.62 768.96 341.80 C 788.71 341.52 808.87 340.20 827.56 333.31 C 830.60 332.33 830.51 328.60 831.39 326.10 C 838.02 298.29 840.92 269.58 840.02 241.01 C 839.21 221.26 835.66 200.95 825.16 183.87 C 817.24 170.74 804.47 160.75 789.93 155.93 C 771.99 149.92 752.62 149.46 734.00 151.98 Z" />
<path fill="#6b7280" opacity="1.00" d=" M 1718.98 156.95 C 1742.78 153.59 1767.37 152.69 1790.90 158.43 C 1805.79 161.93 1820.12 169.09 1830.68 180.31 C 1838.50 188.34 1843.56 198.86 1845.47 209.87 C 1849.81 237.95 1841.51 267.61 1823.75 289.74 C 1807.63 309.87 1787.90 326.77 1767.45 342.32 C 1763.75 345.14 1759.73 347.56 1756.57 351.00 C 1779.72 345.97 1802.78 340.53 1825.88 335.25 C 1833.66 333.46 1841.71 334.26 1849.63 334.28 C 1849.82 341.53 1848.89 348.74 1848.31 355.95 C 1847.32 372.61 1846.02 389.26 1844.88 405.91 C 1835.62 406.57 1826.30 406.05 1817.02 406.22 C 1770.69 406.21 1724.35 406.25 1678.02 406.20 C 1676.90 405.87 1674.46 406.77 1674.57 404.91 C 1673.75 391.28 1673.96 377.62 1673.55 363.98 C 1673.52 360.03 1673.18 356.08 1673.62 352.14 C 1679.14 346.74 1685.47 342.28 1691.44 337.41 C 1717.24 317.20 1743.86 298.05 1769.18 277.23 C 1771.32 275.40 1774.12 273.83 1774.76 270.84 C 1776.32 264.72 1776.59 258.34 1776.59 252.06 C 1776.57 244.97 1774.64 237.60 1769.68 232.34 C 1763.32 225.83 1753.80 223.79 1745.05 223.10 C 1724.94 222.50 1704.91 224.97 1685.00 227.30 C 1681.29 227.61 1682.44 222.67 1681.80 220.35 C 1679.49 208.52 1682.28 196.68 1683.41 184.89 C 1684.43 177.64 1684.75 170.29 1686.20 163.11 C 1696.94 160.15 1707.99 158.66 1718.98 156.95 Z" />
<path fill="#6b7280" opacity="1.00" d=" M 1061.47 162.61 C 1076.56 161.23 1091.85 161.14 1106.84 163.62 C 1125.60 166.36 1144.32 172.73 1159.20 184.81 C 1170.54 193.74 1179.42 205.63 1185.16 218.85 C 1194.73 240.15 1197.25 263.84 1197.23 286.96 C 1196.81 305.28 1194.54 323.78 1187.96 340.99 C 1180.90 360.24 1168.41 377.63 1151.82 389.78 C 1139.58 399.12 1124.91 404.68 1110.11 408.44 C 1092.46 412.27 1074.19 412.99 1056.24 411.21 C 1040.81 409.79 1025.37 406.48 1011.41 399.58 C 998.02 393.21 986.47 383.13 978.17 370.86 C 963.46 348.59 959.24 321.23 958.76 295.03 C 958.97 279.57 959.50 263.92 963.59 248.92 C 968.01 230.87 976.07 213.49 988.32 199.40 C 998.29 187.21 1011.58 178.13 1025.95 171.89 C 1037.04 166.41 1049.30 164.20 1061.47 162.61 M 1057.45 218.64 C 1052.45 219.52 1047.41 220.30 1042.53 221.69 C 1040.87 222.99 1040.48 225.20 1039.91 227.10 C 1036.48 240.09 1035.77 253.61 1035.27 266.98 C 1035.10 285.73 1035.00 304.90 1040.85 322.94 C 1044.37 333.11 1049.13 343.49 1057.84 350.26 C 1065.64 356.62 1076.09 359.19 1086.02 358.16 C 1093.80 357.36 1101.74 356.23 1108.90 352.92 C 1110.12 352.22 1111.78 351.79 1112.25 350.28 C 1113.86 346.05 1114.23 341.48 1115.06 337.07 C 1117.32 321.82 1118.75 306.41 1118.57 290.99 C 1118.12 276.79 1117.13 262.35 1112.29 248.87 C 1108.55 237.90 1102.03 227.02 1091.38 221.62 C 1080.93 216.24 1068.73 217.38 1057.45 218.64 Z" />
<path fill="#6b7280" opacity="1.00" d=" M 1274.54 182.60 C 1292.36 169.68 1314.22 162.86 1336.11 161.87 C 1369.88 160.21 1403.65 167.61 1434.78 180.46 C 1434.70 193.46 1432.08 206.26 1430.50 219.13 C 1428.45 231.40 1426.73 243.75 1423.85 255.87 C 1414.24 256.80 1404.64 257.97 1394.99 258.39 C 1392.99 258.69 1391.71 256.87 1390.60 255.55 C 1383.47 246.29 1376.21 237.13 1369.04 227.90 C 1367.14 225.47 1365.38 222.34 1361.98 221.96 C 1348.42 219.65 1334.52 219.88 1320.88 221.32 C 1319.42 221.33 1317.99 222.04 1317.52 223.48 C 1311.65 235.44 1309.46 248.79 1308.47 261.96 C 1306.97 279.35 1307.33 297.13 1311.89 314.07 C 1314.38 323.40 1318.79 332.45 1325.80 339.23 C 1332.78 345.93 1342.11 349.88 1351.64 351.17 C 1365.89 353.00 1380.24 350.75 1394.12 347.49 C 1406.09 344.92 1417.68 340.96 1429.30 337.19 C 1431.01 339.46 1431.43 342.32 1432.06 345.03 C 1434.82 357.56 1438.41 369.89 1440.85 382.50 C 1433.16 388.45 1424.35 392.76 1415.41 396.49 C 1394.18 405.78 1371.20 411.03 1348.04 411.97 C 1321.27 413.92 1293.08 408.08 1271.44 391.58 C 1256.01 379.86 1244.87 363.12 1238.13 345.08 C 1230.28 324.03 1228.46 301.22 1229.40 278.93 C 1229.92 260.51 1233.63 242.12 1240.90 225.16 C 1248.18 208.37 1259.86 193.53 1274.54 182.60 Z" />
<path fill="#6b7280" opacity="1.00" d=" M 1952.89 164.22 C 1973.48 161.66 1994.35 160.83 2015.05 162.51 C 2032.73 164.34 2051.49 168.59 2064.77 181.22 C 2076.40 191.94 2081.82 207.62 2084.06 222.91 C 2085.99 236.51 2085.63 250.29 2085.67 264.00 C 2085.65 290.66 2085.70 317.32 2085.64 343.97 C 2085.61 347.96 2087.02 352.25 2090.26 354.78 C 2097.21 359.76 2105.33 362.91 2112.22 367.95 C 2112.07 377.45 2111.58 386.95 2110.53 396.40 C 2102.53 398.99 2094.21 400.34 2085.99 401.94 C 2066.51 405.90 2046.82 409.47 2026.93 410.15 C 2023.42 403.08 2023.36 394.85 2020.17 387.64 C 2004.73 396.49 1988.46 404.17 1971.13 408.48 C 1965.07 409.88 1958.91 410.83 1952.77 411.78 C 1944.84 412.96 1936.85 411.68 1928.93 411.14 C 1913.40 409.93 1898.17 403.06 1887.63 391.48 C 1873.82 376.94 1869.48 355.05 1873.80 335.81 C 1877.62 318.91 1889.72 304.99 1904.33 296.23 C 1919.71 287.02 1936.93 281.16 1954.44 277.58 C 1964.61 275.52 1974.80 273.50 1985.14 272.52 C 1994.73 271.58 2004.37 271.35 2013.98 270.56 C 2015.28 261.67 2014.03 252.65 2012.51 243.88 C 2011.08 236.09 2006.96 227.93 1999.31 224.73 C 1987.83 220.15 1975.16 220.48 1963.03 220.87 C 1957.61 220.91 1952.07 220.42 1946.79 221.86 C 1945.25 222.12 1944.48 223.55 1943.83 224.78 C 1939.22 234.14 1934.40 243.39 1929.75 252.73 C 1928.67 254.94 1927.39 257.06 1926.02 259.09 C 1914.79 258.03 1903.48 258.12 1892.31 256.51 C 1887.19 232.92 1883.87 208.96 1881.61 184.94 C 1881.50 183.40 1881.55 181.86 1881.61 180.33 C 1904.68 172.31 1928.72 167.47 1952.89 164.22 M 1946.96 319.93 C 1945.44 320.25 1944.47 321.54 1944.30 323.01 C 1942.91 329.96 1943.09 337.35 1945.53 344.05 C 1948.58 352.53 1956.80 359.03 1965.87 359.58 C 1983.27 361.09 2000.26 355.05 2015.72 347.63 C 2015.84 336.15 2014.71 324.69 2013.90 313.24 C 2008.24 313.28 2002.65 312.19 1997.01 312.47 C 1980.20 313.77 1963.09 314.57 1946.96 319.93 Z" />
<path fill="#6b7280" opacity="1.00" d=" M 1537.05 165.86 C 1560.66 161.01 1585.04 163.08 1608.58 167.27 C 1621.76 169.82 1634.91 173.33 1646.99 179.30 C 1647.35 201.47 1645.91 223.68 1642.94 245.65 C 1636.33 246.97 1629.64 247.80 1623.01 248.98 C 1621.25 249.18 1619.04 249.77 1617.79 248.15 C 1608.82 238.47 1599.69 228.93 1590.80 219.17 C 1588.31 216.26 1584.46 215.28 1580.86 214.63 C 1569.68 212.75 1558.25 212.62 1546.95 213.09 C 1544.22 213.66 1539.96 212.25 1538.56 215.41 C 1537.54 219.58 1537.65 224.03 1538.92 228.14 C 1540.70 234.31 1546.19 238.33 1551.21 241.83 C 1569.20 253.08 1588.60 261.77 1607.28 271.79 C 1621.52 279.56 1635.91 288.02 1646.68 300.41 C 1653.66 308.23 1656.97 318.69 1657.70 329.00 C 1658.79 347.19 1654.24 366.28 1642.43 380.49 C 1632.03 393.30 1617.20 401.69 1601.76 406.91 C 1581.26 413.58 1559.44 414.91 1538.04 413.62 C 1513.66 412.18 1489.56 407.44 1466.04 401.02 C 1467.57 379.33 1468.65 357.55 1471.89 336.02 C 1471.81 334.03 1474.16 334.11 1475.51 333.67 C 1481.30 332.68 1487.07 331.57 1492.83 330.36 C 1495.14 330.18 1498.13 328.88 1499.89 331.12 C 1508.51 340.17 1516.99 349.35 1525.49 358.52 C 1528.43 361.40 1532.79 361.66 1536.60 362.59 C 1547.63 365.20 1559.05 364.60 1570.30 364.48 C 1573.00 364.08 1577.42 364.61 1578.04 361.01 C 1579.03 355.20 1579.51 348.30 1575.35 343.56 C 1570.64 338.36 1564.09 335.45 1558.19 331.87 C 1541.25 322.76 1523.49 315.11 1507.37 304.52 C 1494.10 295.96 1480.82 285.93 1473.29 271.70 C 1466.82 259.08 1466.00 244.37 1467.84 230.53 C 1469.97 215.32 1476.85 200.61 1488.15 190.08 C 1501.26 176.87 1519.07 169.54 1537.05 165.86 Z" />
<path fill="#6b7280" opacity="1.00" d=" M 2184.96 168.14 C 2199.86 165.67 2214.87 163.34 2230.02 163.17 C 2233.78 172.44 2235.93 182.45 2237.54 192.34 C 2237.69 240.90 2237.53 289.46 2237.62 338.03 C 2238.04 344.22 2236.95 352.07 2242.83 356.13 C 2251.30 361.56 2260.25 366.23 2268.95 371.29 C 2269.18 382.99 2268.11 394.66 2267.35 406.32 C 2222.19 406.07 2177.04 406.34 2131.89 406.18 C 2131.28 406.10 2130.07 405.95 2129.46 405.87 C 2129.57 391.87 2128.54 377.87 2128.29 363.87 C 2138.92 360.60 2149.60 357.51 2160.20 354.12 C 2160.50 323.76 2160.33 293.39 2160.40 263.02 C 2160.15 252.88 2160.97 242.66 2159.61 232.58 C 2159.20 229.20 2156.31 227.06 2153.72 225.29 C 2146.35 220.34 2138.11 216.91 2130.66 212.11 C 2131.14 200.66 2132.08 189.24 2132.82 177.81 C 2150.12 174.20 2167.55 171.24 2184.96 168.14 Z" />
</g>
</svg>